<svg width="41" height="40" viewBox="0 0 41 40" fill="none" xmlns="http://www.w3.org/2000/svg">
<path opacity="0.4" d="M20.5 13.332C23.2614 13.332 25.5 11.0935 25.5 8.33203C25.5 5.57061 23.2614 3.33203 20.5 3.33203C17.7386 3.33203 15.5 5.57061 15.5 8.33203C15.5 11.0935 17.7386 13.332 20.5 13.332Z" fill="#7D9DEA"/>
<path opacity="0.4" d="M36.3333 33.3333C36.3333 34.714 35.214 35.8333 33.8333 35.8333C32.4526 35.8333 31.3333 34.714 31.3333 33.3333C31.3333 31.9526 32.4526 30.8333 33.8333 30.8333C35.214 30.8333 36.3333 31.9526 36.3333 33.3333Z" fill="#7D9DEA" stroke="#7D9DEA" stroke-width="1.66667"/>
<path opacity="0.4" d="M9.66634 33.3333C9.66634 34.714 8.54705 35.8333 7.16634 35.8333C5.78563 35.8333 4.66634 34.714 4.66634 33.3333C4.66634 31.9526 5.78563 30.8333 7.16634 30.8333C8.54705 30.8333 9.66634 31.9526 9.66634 33.3333Z" fill="#7D9DEA" stroke="#7D9DEA" stroke-width="1.66667"/>
<path d="M20.5 13.332C23.2614 13.332 25.5 11.0935 25.5 8.33203C25.5 5.57061 23.2614 3.33203 20.5 3.33203C17.7386 3.33203 15.5 5.57061 15.5 8.33203C15.5 11.0935 17.7386 13.332 20.5 13.332Z" stroke="#7D9DEA" stroke-width="2.5"/>
<path d="M20.5003 36.6667C22.3413 36.6667 23.8337 35.1743 23.8337 33.3333C23.8337 31.4924 22.3413 30 20.5003 30C18.6594 30 17.167 31.4924 17.167 33.3333C17.167 35.1743 18.6594 36.6667 20.5003 36.6667Z" stroke="#7D9DEA" stroke-width="2.5"/>
<path d="M33.8333 36.6667C35.6743 36.6667 37.1667 35.1743 37.1667 33.3333C37.1667 31.4924 35.6743 30 33.8333 30C31.9924 30 30.5 31.4924 30.5 33.3333C30.5 35.1743 31.9924 36.6667 33.8333 36.6667Z" stroke="#7D9DEA" stroke-width="2.5"/>
<path d="M7.16634 36.6667C9.00729 36.6667 10.4997 35.1743 10.4997 33.3333C10.4997 31.4924 9.00729 30 7.16634 30C5.32539 30 3.83301 31.4924 3.83301 33.3333C3.83301 35.1743 5.32539 36.6667 7.16634 36.6667Z" stroke="#7D9DEA" stroke-width="2.5"/>
<path d="M33.8337 25.0013C33.8337 23.1603 31.9682 21.668 29.667 21.668H11.3337C9.03248 21.668 7.16699 23.1603 7.16699 25.0013" stroke="#7D9DEA" stroke-width="2.5" stroke-linecap="round"/>
<path d="M20.5 18.332V24.9987" stroke="#7D9DEA" stroke-width="2.5" stroke-linecap="round"/>
</svg>
